<?xml version='1.0' encoding='utf-8'?>
<svg xmlns="http://www.w3.org/2000/svg" width="659.95mm" height="774.38mm" version="1.1" viewBox="0 0 659.95 774.38"><g transform="translate(-512.42 -1141.1)"><path d="m837.25 1141.2c-21.266 1.2511-42.389 5.2188-62.396 12.629-4.6318 1.7855-9.232 3.6707-13.971 5.1542-3.2733 1.5771-6.2293 3.7965-9.6832 4.9966-4.5646 2.1334-8.7152 5.1167-13.071 7.7029-32.756 20.77-59.862 50.041-79.277 83.553-11.25 19.364-19.929 40.151-27.042 61.355-0.87943 2.5314-1.5212 5.1943-3.0618 7.4333-2.1311 3.2742-4.9545 6.0111-7.4016 9.0406-13.109 15.333-25.511 31.51-34.513 49.614-8.1944 16.357-14.956 33.417-20.327 50.893-3.973 12.681-7.2339 25.584-11.656 38.122-6.4395 18.69-14.02 36.954-21.004 55.443-1.8884 5.0185-3.8537 10.007-5.4812 15.107-0.23273 2.2828 2.093 3.7632 2.2236 5.9745 0.24883 1.8513-0.66533 3.5743-1.7005 5.034-2.3475 3.2975-4.1163 6.9696-5.6178 10.718-2.6945 6.956-4.3046 14.227-6.0255 21.49-2.6464 11.704-4.5122 23.664-4.7667 35.654-0.30212 11.89 0.67946 23.759 3.9643 35.236 2.9751 10.523 7.8215 20.462 13.888 29.542 8.7476 13.48 19.094 25.943 30.936 36.817 9.8365 9.0725 20.695 17.101 32.154 24.047 20.527 12.555 40.802 25.516 60.887 38.762 1.2809 0.7655 2.4665 1.7545 3.8634 2.288 2.0662 0.3667 4.1625-0.5125 6.2128-0.085 1.412 0.5404 1.4631 2.2389 2.0401 3.4121 2.1092 4.8718 6.5389 8.3277 11.285 10.446 11.265 5.56 22.542 11.098 33.591 17.081 26.263 14.123 51.662 30.185 74.099 49.925 15.272 13.406 29.161 28.368 41.629 44.406 1.0441 1.5713 2.9181 2.619 4.7809 2.4572 2.7229-0.056 5.318-2.1941 5.6338-4.9394 0.60372-3.0009 0.1212-6.1048 0.67578-9.1055 0.34858-1.877 2.3524-3.0649 4.1792-2.7865 1.1725 0.09 2.0834 0.8827 2.854 1.6928 2.2179 1.9818 4.1175 4.5858 7.0563 5.5328 2.2954 0.5745 4.4974-0.8597 6.0208-2.4486 4.2045-4.0826 7.3497-9.089 11.603-13.142 16.309-17.3 35.364-31.732 54.969-45.077 35.895-24.18 74.331-44.194 112.39-64.705 12.347-6.6758 24.677-13.396 36.734-20.588 14.85-9.1133 29.121-19.397 41.308-31.914 11.307-11.686 20.685-25.194 29.354-38.965 3.9942-6.4108 7.9722-12.836 11.707-19.402 6.11-10.866 11.536-22.388 13.886-34.73 2.6981-13.769 2.4805-27.922 1.6434-41.864-0.7223-12.214-2.0694-24.363-4.0695-36.415-3.9847-24.262-10.056-48.142-17.1-71.688-5.5847-18.538-11.873-36.857-19.924-54.488-6.0855-13.283-13.272-26.063-21.466-38.17-12.503-18.713-26.666-36.227-40.343-54.078-3.7437-4.8344-7.4863-9.6697-11.231-14.504 1.4868-2.6854 0.8753-5.9512-0.3293-8.6158-8.2767-19.859-16.252-39.941-26.983-58.642-17.951-31.364-43.97-57.954-74.115-77.779-7.9056-5.1618-16.064-9.9552-24.517-14.166-2.8036-1.4261-5.7324-2.6071-8.4803-4.1385-1.7172-1.0418-3.4363-2.1871-5.4481-2.5595-2.135-0.4966-4.19-1.4036-6.083-2.4043-3.9743-1.7974-8.1829-2.9935-12.297-4.4192-19.16-6.3966-39.251-9.916-59.455-9.8494-0.91066-0.017-1.8185 0.072-2.7277 0.1108z" stroke-width=".48686"/><g transform="matrix(.48686 0 0 .48686 517.66 1146.3)"><g clip-path="url(#clipping-path-0)" fill="none"><path d="m1116.6 391.41c-1.32 0.52-1.27 1.67 0.14 3.44 4.72 5.91 0.38 11.63-2.64 16.73-2.18 3.69 0.24 6.21-0.3 9.58-0.49 3.06-1.61 5.09-4.16 7.13-6.24 4.99-19.3 17.94-27.73 16.52-4.39-0.74-9.93 0.47-13.76-1.35-5.47-2.62-9.07-5.59-15.74-3.44-0.31 0.1-0.64 0.12-0.95 0.05-1.92-0.39-3.65-0.23-5.2 0.5" stroke="#595958" vector-effect="non-scaling-stroke"/><path d="m1042.6 443.9c-0.35 0.99-0.76 1.72-1.21 2.19-0.33 0.35-0.87 0.37-1.23 0.06l-14.46-12.65c-0.25-0.22-0.53-0.31-0.86-0.28-1.69 0.15-3.27 0.78-4.72 0.85-19.13 1.05-24.22-23.67-41.15-25.18-1.77-0.16-3.09 0.6-3.96 2.04-0.28 0.46-0.89 0.58-1.33 0.27l-11.06-7.89" stroke="#595958" vector-effect="non-scaling-stroke"/><path d="m236.85 452.6c-5.23-0.25-7.26 1.3-11.49-2.94" stroke="#595958" vector-effect="non-scaling-stroke"/><path d="m178.53 524.44c-1.65 0.16-3.22 1.1-4.72 2.82-0.24 0.27-0.64 0.31-0.93 0.1-2.43-1.78-3.18-4.14-2.25-7.09 0.08-0.27 0.08-0.56-0.02-0.83-2.23-6.21-3.1-12.61-2.61-19.18 0.02-0.31-0.07-0.62-0.26-0.87-3.01-3.98-4.75-9.02-5.22-15.12-0.17-2.28-2.5-1.72-3.47-2.69-0.3-0.3-0.4-0.7-0.3-1.21 0.07-0.33-0.05-0.58-0.34-0.74l-0.78-0.42" stroke="#595958" vector-effect="non-scaling-stroke"/><path d="m1165.7 568.74c-3.73 2.29-7.91 2.99-12.52 2.12-3.64-0.69-6.44-0.83-9.98-1.3-3.67-0.49-6.7 0.7-9.1 3.57-0.23 0.28-0.61 0.38-0.95 0.26-2.18-0.77-10.11-6.53-11.5-2.63" stroke="#595958" vector-effect="non-scaling-stroke"/><path d="m252.8 469.09c-1.05-0.24-1.9-0.12-2.55 0.35-0.69 0.51-1.68 0.14-1.87-0.7l-0.64-2.83c-0.08-0.35-0.29-0.58-0.64-0.68-2.17-0.63-3.38-2.08-3.62-4.34-0.06-0.5-0.47-0.87-0.97-0.88l-1.92-0.03c-0.37-0.01-0.64-0.36-0.55-0.72 0.27-1.17 0.22-2.28-0.16-3.33" stroke="#595958" vector-effect="non-scaling-stroke"/><path d="m1322.4 829.91c-1.19 0.59-1.93 1.77-2.21 3.54-0.06 0.37-0.48 0.55-0.79 0.33l-3.52-2.49" stroke="#414040" vector-effect="non-scaling-stroke"/><path d="m30.6 960c-1.31-0.1-2.49 0.18-3.52 0.85-0.2 0.12-0.43 0.18-0.66 0.17l-6.09-0.34c-0.33-0.02-0.55 0.12-0.66 0.43-0.96 2.47-1.82 4.99-2.59 7.56-1.03 3.44-0.26 7.02-1.39 10.76-0.11 0.37-0.36 0.53-0.75 0.47-0.49-0.08-1-0.4-1.51-0.96" stroke="#414040" vector-effect="non-scaling-stroke"/><path d="m17.83 928.68c-2.23 1.48-3.87 3.75-4.91 6.8-0.06 0.19-0.19 0.28-0.39 0.27h-0.28c-0.28 0-0.49-0.25-0.44-0.52 1.48-8-3.43-4.01-7.15-6.76" stroke="#414040" vector-effect="non-scaling-stroke"/><path d="m1304.5 867.12c-0.98 2.01-2.1 3.8-3.35 5.39-2.95 3.76-6.76 3.52-9.14-0.6-0.13-0.22-0.51-0.25-1.15-0.08" stroke="#414040" vector-effect="non-scaling-stroke"/><path d="m1124.6 988.03c-3.21 1.74-6.94 2.07-11.17 0.99" stroke="#414040" vector-effect="non-scaling-stroke"/><path d="m1085.6 1021.5c-2.75 0.97-5.38 1.18-7.91 0.63-0.7-0.15-1.42 0.09-1.9 0.62-15.61 17.47-36.89 35.36-59.65 42.58-4.05 1.28-6.89 3.5-10.17 5.82-1.15 0.81-2.51 1.25-3.91 1.26l-15.32 0.17c-0.46 0.01-0.59-0.19-0.38-0.6l1.43-2.92c0.08-0.16 0.06-0.36-0.07-0.5l-0.77-0.84" stroke="#414040" vector-effect="non-scaling-stroke"/><path d="m947.2 1109.4-4.81 3.43c-0.72 0.52-1.73 0.22-2.07-0.6-2.41-5.95-6.85-9.32-13.31-10.12-0.12-0.01-0.21-0.08-0.26-0.19-0.09-0.2-0.17-0.25-0.24-0.14" stroke="#414040" vector-effect="non-scaling-stroke"/><path d="m428.95 1122.5c-14.19 3.22-26.61-1.79-40.27-7.69-2.63-1.13-4.83-0.54-6.58 1.78-0.2 0.27-0.57 0.34-0.85 0.16-1.32-0.82-2.57-1.25-3.74-1.29" stroke="#414040" vector-effect="non-scaling-stroke"/><path d="m312.42 1113.8 10.59-0.59c0.46-0.03 0.84 0.32 0.86 0.78 0.13 3.2 2.03 3.41 4.38 4.49 7.93 3.64 16.25 7.55 25.02 8.49 4.75 0.51 8.76-0.98 12.02-4.49" stroke="#414040" vector-effect="non-scaling-stroke"/><path d="m437.95 1130.4 4.84-1.45" stroke="#414040" vector-effect="non-scaling-stroke"/></g><path d="m661.32 0h14.24c45.33 1.71 89.61 12.24 131.61 29.12 1.25 0.51 1.85 1.18 2.25 2.54 14.75 50.63 29.5 92 37.72 139.85 0.09 0.55 0.12 0.9 0.09 1.07-0.15 0.6-0.77 0.95-1.36 0.78-122.03-36.79-251.12-33.25-369.93 13.1-0.54 0.21-1.11-0.21-1.08-0.78 2.47-53.99 16.58-104.68 42.35-152.09 1.81-3.32 3.75-4.26 7.1-5.53 44.39-16.77 90.06-26.13 137.01-28.06z" fill="#626261"/><path d="m1116.6 391.41c-1.32 0.52-1.27 1.67 0.14 3.44 4.72 5.91 0.38 11.63-2.64 16.73-2.18 3.69 0.24 6.21-0.3 9.58-0.49 3.06-1.61 5.09-4.16 7.13-6.24 4.99-19.3 17.94-27.73 16.52-4.39-0.74-9.93 0.47-13.76-1.35-5.47-2.62-9.07-5.59-15.74-3.44-0.31 0.1-0.64 0.12-0.95 0.05-1.92-0.39-3.65-0.23-5.2 0.5-42.07-47.58-88.07-91.38-137.64-131.12-0.08-0.06-0.19-0.05-0.25 0.02-0.07 0.07-0.07 0.18-0.01 0.25 16.08 18.53 32.95 36.72 51.34 53 29 25.69 56.66 52.75 82.97 81.18-0.35 0.99-0.76 1.72-1.21 2.19-0.33 0.35-0.87 0.37-1.23 0.06l-14.46-12.65c-0.25-0.22-0.53-0.31-0.86-0.28-1.69 0.15-3.27 0.78-4.72 0.85-19.13 1.05-24.22-23.67-41.15-25.18-1.77-0.16-3.09 0.6-3.96 2.04-0.28 0.46-0.89 0.58-1.33 0.27l-11.06-7.89c-7.09-9.74-15.32-18.56-24.7-26.46-4.89-4.11-11.07-8.23-16.66-12.29-13.92-10.11-24.22-23.87-37.5-34.3-18.63-14.63-38.05-23.32-61.97-34.05-31.43-14.1-62.16-19.2-96-17.88-69.54 2.7-138.06 12.03-206.77 24.62-30.17 5.53-59.93 12.72-89.28 21.57-76.78 23.16-143.66 63.92-192.91 128.08-5.23-0.25-7.26 1.3-11.49-2.94 10.51-14.02 22.56-27.56 36.16-40.63 34.83-33.49 74.18-61.62 117.23-82.68 50.96-24.92 105.83-41.69 161.74-52.2 0.35-0.07 0.53-0.26 0.52-0.58 0-0.24-0.22-0.43-0.46-0.39-111.86 18.51-217.52 66.96-297.37 148.87-4.77 4.89-9.15 9.9-13.16 15.03-20.99 26.87-38.15 55.99-51.49 87.36-1.65 0.16-3.22 1.1-4.72 2.82-0.24 0.27-0.64 0.31-0.93 0.1-2.43-1.78-3.18-4.14-2.25-7.09 0.08-0.27 0.08-0.56-0.02-0.83-2.23-6.21-3.1-12.61-2.61-19.18 0.02-0.31-0.07-0.62-0.26-0.87-3.01-3.98-4.75-9.02-5.22-15.12-0.17-2.28-2.5-1.72-3.47-2.69-0.3-0.3-0.4-0.7-0.3-1.21 0.07-0.33-0.05-0.58-0.34-0.74l-0.78-0.42c20.31-39.45 50.93-73.55 79.34-107 2.53-2.97 4.64-8.67 6.06-13.26 41.15-132.73 119.11-246.38 242.87-314 0.58-0.32 1.29 0.05 1.37 0.7 0.01 0.07 0.01 0.25 0 0.56-0.01 0.19-0.06 0.36-0.16 0.52-29.93 47.81-45.82 99.44-50.22 155.71-0.06 0.7-0.46 1.33-1.08 1.67l-30.8 16.95c-1.59 0.87-2.25 0.41-1.98-1.38 5.35-36.38 16.72-70.74 34.1-103.08 0.26-0.49 0.12-0.66-0.41-0.52-0.5 0.13-0.91 0.44-1.22 0.95-21.71 34.91-34.65 73.12-47.26 111.96-0.1 0.31-0.3 0.59-0.55 0.8-12.17 9.91-26.25 19.06-34.36 25.29-19.4 14.92-39.57 34.47-57.78 52.7-0.47 0.48-1.28 0.27-1.48-0.37-1.47-4.78-1.43-8.23-0.43-13.49 6.72-35.65 20.34-68.63 40.85-98.92 0.09-0.13 0.08-0.26-0.02-0.38-0.14-0.17-0.28-0.17-0.41 0-36.56 44.38-61.48 94.61-74.75 150.68-0.14 0.57 0 0.65 0.43 0.24 14.91-14.51 29.51-29.54 44.87-43.56 59.07-53.9 132-90.96 209.4-110.96 59.9-15.47 120.39-22.09 182.18-24.1 29.56-0.96 58.44 2.73 87.04 9.19 47.78 10.79 95.93 22.59 141.01 42.16 45.08 19.56 84.73 47.12 119.38 81.95 0.3 0.3 0.8-0.04 0.63-0.43-26.26-59.09-64.81-108.57-115.64-148.44-0.26-0.2-0.62 0.08-0.48 0.38 0.03 0.07 0.07 0.17 0.12 0.28s0.11 0.21 0.2 0.28c36.27 30.97 64.25 68.12 83.92 111.44 0.1 0.22-0.16 0.42-0.35 0.27-21.8-17.73-44.55-34.15-68.24-49.26-2.26-1.45-5.33-5.97-6.93-8.97-15.84-29.68-26.96-51.09-49.37-71.07-0.17-0.15-0.34-0.23-0.5-0.24-0.11 0-0.21 0.02-0.29 0.06-0.23 0.11-0.25 0.25-0.07 0.42 19.59 18.63 32.1 41.22 37.55 67.78 0.08 0.37-0.29 0.67-0.64 0.53-10.17-4.25-20.32-8.53-30.47-12.86-7.17-3.06-9.87-3.12-11.76-10.19-2.33-8.77-8.04-28.69-17.13-59.75-7.68-26.25-16.79-52-27.34-77.23-0.09-0.21-0.11-0.39-0.07-0.54 0.04-0.17 0.23-0.27 0.39-0.19 97.04 46.71 177.35 122.99 223.69 220.74 14.37 30.31 27.57 61.11 39.59 92.41 0.16 0.41 0.18 0.75 0.05 1.04-0.14 0.33-0.58 0.41-0.83 0.15-13.21-13.51-26.56-26.91-40.03-40.2-0.12-0.11-0.23-0.2-0.32-0.25-0.39-0.23-0.82 0.25-0.54 0.61zm-413.86-134.06c20.81 0.47 39.17 1.68 55.06 3.63 40.3 4.94 82.12 18.62 120.23 33.81 4.29 1.71 4.52 1.27 0.69-1.31-24.17-16.3-53.71-27.68-81.93-34.48-64.23-15.46-135.86-10.67-200.98 3.04-0.13 0.03-0.24 0.05-0.35 0.08-0.15 0.04-0.25 0.19-0.22 0.34s0.17 0.26 0.33 0.24c35.59-4.38 71.31-6.16 107.17-5.35z" fill="#626261"/><path d="m1165.7 568.74c-3.73 2.29-7.91 2.99-12.52 2.12-3.64-0.69-6.44-0.83-9.98-1.3-3.67-0.49-6.7 0.7-9.1 3.57-0.23 0.28-0.61 0.38-0.95 0.26-2.18-0.77-10.11-6.53-11.5-2.63-34.76-14.31-70.53-28.33-95.55-57.85-5.51-6.5-10.97-13.05-16.37-19.65-7.6-9.31-14.9-16.27-25.3-24.24-27.55-21.1-51.01-45.33-70.37-74.78-3.7-5.62-8.04-10.25-13.3-13.27-9.73-5.57-19.69-10.65-28.84-17.58-9.14-6.93-16.93-16.26-26.03-23.82-45.22-37.59-105.56-41.06-162.14-36.8-89.19 6.71-172.2 17.02-254.48 44.31-19.84 6.58-40.86 14.98-58.29 23.41-46.39 22.45-85.73 58.17-118.19 98.6-1.05-0.24-1.9-0.12-2.55 0.35-0.69 0.51-1.68 0.14-1.87-0.7l-0.64-2.83c-0.08-0.35-0.29-0.58-0.64-0.68-2.17-0.63-3.38-2.08-3.62-4.34-0.06-0.5-0.47-0.87-0.97-0.88l-1.92-0.03c-0.37-0.01-0.64-0.36-0.55-0.72 0.27-1.17 0.22-2.28-0.16-3.33 35.56-44.63 80.92-79.04 132.81-102 46.42-20.55 96.17-33.03 146.12-41.34 61.97-10.32 125.87-20.83 187-24.25 53.07-2.98 116.14 3.85 158.82 39.28 11.22 9.31 18.61 21.86 30.43 30.58 2.32 1.71 8.46 4.72 18.43 9.03 13.26 5.74 20.16 17.95 28.06 29.49 18.98 27.76 44.8 49.22 70.22 70.76 13.35 11.32 26.11 31.07 35.04 41.71 29.24 34.82 79.55 41.92 118.9 59.55z" fill="#626261"/><path d="m1116.6 391.41c26.08 33 57.17 73.07 83.14 109.72 30.02 42.38 53.79 89.45 71.03 138.39 21.99 62.43 39.74 125.22 51.66 190.39-1.19 0.59-1.93 1.77-2.21 3.54-0.06 0.37-0.48 0.55-0.79 0.33l-3.52-2.49c-5.35-42.53-13.12-84.55-25.63-125.03-4-12.92-9.06-27.58-14.84-39.6-31.91-66.39-90.95-97.82-156.1-125.36-16.86-7.13-28.87-14.25-41.61-26.23-26.65-25.07-58.19-54.27-94.64-87.6-4.89-4.47-11.69-12.52-20.4-24.16l11.06 7.89c0.44 0.31 1.05 0.19 1.33-0.27 0.87-1.44 2.19-2.2 3.96-2.04 16.93 1.51 22.02 26.23 41.15 25.18 1.45-0.07 3.03-0.7 4.72-0.85 0.33-0.03 0.61 0.06 0.86 0.28l14.46 12.65c0.36 0.31 0.9 0.29 1.23-0.06 0.45-0.47 0.86-1.2 1.21-2.19 15.39 16.2 30.4 32.74 45.01 49.62 5.99 6.91 10.56 11.74 13.73 14.51 13.56 11.84 31.18 19.2 46.15 25.05 3.16 1.23 3.29 0.97 0.38-0.79-17.93-10.84-35-22.07-50.1-36.83-17.97-17.55-35.17-35.85-51.58-54.89 1.55-0.73 3.28-0.89 5.2-0.5 0.31 0.07 0.64 0.05 0.95-0.05 6.67-2.15 10.27 0.82 15.74 3.44 3.83 1.82 9.37 0.61 13.76 1.35 8.43 1.42 21.49-11.53 27.73-16.52 2.55-2.04 3.67-4.07 4.16-7.13 0.54-3.37-1.88-5.89 0.3-9.58 3.02-5.1 7.36-10.82 2.64-16.73-1.41-1.77-1.46-2.92-0.14-3.44z" fill="#504f4f"/><path d="m225.36 449.66c4.23 4.24 6.26 2.69 11.49 2.94-16.87 23.89-32.34 48.65-46.41 74.28-0.18 0.34-0.24 0.64-0.18 0.9 0.13 0.57 0.9 0.69 1.19 0.18 14.29-25.24 30.44-49.25 48.43-72.03 0.38 1.05 0.43 2.16 0.16 3.33-0.09 0.36 0.18 0.71 0.55 0.72l1.92 0.03c0.5 0.01 0.91 0.38 0.97 0.88 0.24 2.26 1.45 3.71 3.62 4.34 0.35 0.1 0.56 0.33 0.64 0.68l0.64 2.83c0.19 0.84 1.18 1.21 1.87 0.7 0.65-0.47 1.5-0.59 2.55-0.35-18.14 21.19-36 45.7-45.26 72.21-5.46 15.62-9.17 35.63-12.16 53.36-2.12 12.51-7.55 25.1-13.11 36.07-34.02 67.16-57.22 113.98-84.93 171.44-8.76 18.18-20.27 32.31-33.28 47.59-3.59 4.21-6.11 7.79-7.57 10.75-5.02 10.2-5.71 21.87-8.83 32.74-6.38 22.19-13.74 43.81-17.06 66.75-1.31-0.1-2.49 0.18-3.52 0.85-0.2 0.12-0.43 0.18-0.66 0.17l-6.09-0.34c-0.33-0.02-0.55 0.12-0.66 0.43-0.96 2.47-1.82 4.99-2.59 7.56-1.03 3.44-0.26 7.02-1.39 10.76-0.11 0.37-0.36 0.53-0.75 0.47-0.49-0.08-1-0.4-1.51-0.96 1.5-24.42 6.2-48.2 14.1-71.33 0.09-0.25-0.07-0.53-0.33-0.58-0.45-0.08-0.77 0.09-0.95 0.51-2.39 5.59-5.19 12.64-8.42 21.14-2.23 1.48-3.87 3.75-4.91 6.8-0.06 0.19-0.19 0.28-0.39 0.27h-0.28c-0.28 0-0.49-0.25-0.44-0.52 1.48-8-3.43-4.01-7.15-6.76 4.31-23.68 9.74-45.44 16.28-65.29 7.27-22.05 26.59-38.92 39.43-58.21 27.64-41.53 41.18-91 56.38-138.26 12.44-38.67 28.36-75.85 47.75-111.54 0.11-0.19-0.03-0.43-0.25-0.42h-0.27c-0.19 0.01-0.34 0.09-0.45 0.25-24.14 37.93-43.63 75.79-58.48 113.56-10.29 26.18-17.54 44.33-21.75 54.46-13.01 31.33-29.22 60.89-48.63 88.69-0.42 0.6-0.79 1.16-1.12 1.67-0.1 0.16-0.3 0.21-0.47 0.13-0.16-0.09-0.24-0.29-0.17-0.46 16.37-41.82 32.53-83.61 48.48-125.38 11.39-29.82 19.42-60.7 28.3-91.32 11.74-40.44 28.34-79.88 47.94-117.14l0.78 0.42c0.29 0.16 0.41 0.41 0.34 0.74-0.1 0.51 0 0.91 0.3 1.21 0.97 0.97 3.3 0.41 3.47 2.69 0.47 6.1 2.21 11.14 5.22 15.12 0.19 0.25 0.28 0.56 0.26 0.87-0.49 6.57 0.38 12.97 2.61 19.18 0.1 0.27 0.1 0.56 0.02 0.83-0.93 2.95-0.18 5.31 2.25 7.09 0.29 0.21 0.69 0.17 0.93-0.1 1.5-1.72 3.07-2.66 4.72-2.82l-6.99 16.18c-0.18 0.43 0.32 0.82 0.68 0.53s0.67-0.69 0.93-1.22c15.41-31.23 32.82-61.32 52.21-90.27zm-49.07 123.19c-29.69 51.47-50.33 102.59-72.56 162.03-14.47 38.71-33.14 72.76-57.76 105.97-8.64 11.66-11.56 21.15-13.09 35.52-0.03 0.3 0.3 0.49 0.55 0.32 0.31-0.21 0.51-0.55 0.62-1.03 2.34-10.29 6.43-19.69 12.28-28.19 1.07-1.57 5.01-6.26 11.8-14.09 16.35-18.83 28.34-40.26 37.84-63.18 27.42-66.15 46.43-135.08 81.73-197.84 0.13-0.23-0.11-0.5-0.36-0.39-0.49 0.21-0.84 0.5-1.05 0.88z" fill="#504f4f"/><path d="m1165.7 568.74c9.05 4.25 17.81 9.74 26.3 16.49 51.78 41.17 81.93 95.03 99.98 158.16 12.81 44.78 21.79 91.31 25.35 137.74 0.02 0.23-0.14 0.43-0.37 0.47-0.22 0.04-0.44-0.1-0.5-0.32-3.93-14.62-8.89-28.88-14.89-42.79-0.08-0.18-0.28-0.27-0.47-0.22-0.18 0.05-0.31 0.24-0.28 0.43l3.69 28.42c-0.98 2.01-2.1 3.8-3.35 5.39-2.95 3.76-6.76 3.52-9.14-0.6-0.13-0.22-0.51-0.25-1.15-0.08-3.75-14.05-6.73-24.82-8.92-32.31-18.98-64.69-45.6-125.98-79.86-183.89-20.56-34.74-43.07-66.81-80.44-84.87 1.39-3.9 9.32 1.86 11.5 2.63 0.34 0.12 0.72 0.02 0.95-0.26 2.4-2.87 5.43-4.06 9.1-3.57 3.54 0.47 6.34 0.61 9.98 1.3 4.61 0.87 8.79 0.17 12.52-2.12z" fill="#504f4f"/><path d="m1124.6 988.03c-3.21 1.74-6.94 2.07-11.17 0.99l-27.82 32.51c-2.75 0.97-5.38 1.18-7.91 0.63-0.7-0.15-1.42 0.09-1.9 0.62-15.61 17.47-36.89 35.36-59.65 42.58-4.05 1.28-6.89 3.5-10.17 5.82-1.15 0.81-2.51 1.25-3.91 1.26l-15.32 0.17c-0.46 0.01-0.59-0.19-0.38-0.6l1.43-2.92c0.08-0.16 0.06-0.36-0.07-0.5l-0.77-0.84c49.82-57.33 93.52-120.49 126.61-188.95 8.88-18.37 16.16-34.92 21.16-53.07 3.94-14.29 6.89-30.18 10.11-45.2 0.04-0.2 0.23-0.33 0.43-0.32 0.2 0.02 0.36 0.19 0.37 0.39 2.92 68.93-2.22 140.76-21.04 207.43z" fill="#504f4f"/><path d="m947.2 1109.4-4.81 3.43c-0.72 0.52-1.73 0.22-2.07-0.6-2.41-5.95-6.85-9.32-13.31-10.12-0.12-0.01-0.21-0.08-0.26-0.19-0.09-0.2-0.17-0.25-0.24-0.14 10.29-14.65 18.51-28.45 24.65-41.4 26.33-55.51 48.73-114.23 67.21-176.15 6.52-21.84 11.71-43.94 15.67-66.44 0.09-0.5 0.55-0.85 1.05-0.8 0.67 0.07 0.99 0.47 0.96 1.21-0.03 0.63-0.04 0.96-0.04 1 1.72 41.02-0.32 82.67-7.81 123.09-11.57 62.44-40.98 118.32-81 167.11z" fill="#504f4f"/><path d="m1322.4 829.91c6.94 36.73 10.81 73.78 11.62 111.16v21.5c-0.16 33.05-8.24 64.38-24.23 93.97-19.59 36.26-41.18 70.16-64.77 101.69-53.7 71.8-138.06 110.63-214.72 151.77-54.22 29.1-106.01 57.13-151.99 85.52-60.71 37.49-123.39 80.39-171.6 134.67-3.61 4.07-9.53 13.25-16.19 18.97-0.23 0.2-0.47 0.32-0.72 0.36-0.37 0.06-0.65 0.03-0.84-0.1-0.54-0.36-0.7-1.09-0.35-1.64 25.26-39.68 53.92-76.75 85.98-111.2 5.39-5.8 12.38-11.12 20.97-15.97 41.59-23.46 83.34-47.22 125.86-68.96 109.79-56.13 180.38-92.45 211.78-108.97 33.71-17.74 64.23-39.21 90.44-65.69 0.24-0.25 0.38-0.59 0.38-0.94v-0.58c0-0.5-0.57-0.77-0.96-0.46-22.44 17.79-45.96 34.02-70.57 48.68-0.39 0.23-0.83-0.19-0.62-0.59 12.42-23.43 28.29-44.23 47.62-62.4 0.08-0.08 0.09-0.2 0.02-0.29s-0.19-0.11-0.29-0.05c-22.56 14.53-39.39 34.04-53.21 56.86-2.97 4.91-5.95 9.8-8.95 14.69-0.18 0.28-0.43 0.51-0.73 0.66-40.1 20.25-80.21 40.48-120.29 60.78-89.2 45.19-176.75 93.36-262.66 144.51-17.13 10.2-32.98 21.73-47.81 34.9-0.37 0.32-0.89 0.41-1.34 0.23-1.46-0.58-1.5-1.68-0.89-3 21.2-45.94 43.9-91.13 68.09-135.57 30.92-56.77 59.46-106.06 85.63-147.87 18.53-29.61 41.69-57.85 69.47-84.72 0.07-0.11 0.15-0.06 0.24 0.14 0.05 0.11 0.14 0.18 0.26 0.19 6.46 0.8 10.9 4.17 13.31 10.12 0.34 0.82 1.35 1.12 2.07 0.6l4.81-3.43-5.21 8.27c-0.11 0.17-0.08 0.32 0.07 0.45 0.09 0.09 0.19 0.12 0.3 0.11 0.07-0.01 0.15-0.05 0.22-0.14 14.81-16.79 29.6-33.58 44.35-50.39l0.77 0.84c0.13 0.14 0.15 0.34 0.07 0.5l-1.43 2.92c-0.21 0.41-0.08 0.61 0.38 0.6l15.32-0.17c1.4-0.01 2.76-0.45 3.91-1.26 3.28-2.32 6.12-4.54 10.17-5.82 22.76-7.22 44.04-25.11 59.65-42.58 0.48-0.53 1.2-0.77 1.9-0.62 2.53 0.55 5.16 0.34 7.91-0.63-28.11 36.83-58.59 71.49-91.44 103.97-18.17 17.97-39.03 33.13-57.17 51.12-22.57 22.39-41.15 47.82-55.72 76.29-0.08 0.15-0.03 0.34 0.1 0.44 0.14 0.09 0.33 0.08 0.45-0.04 0.51-0.51 1.27-1.16 2.28-1.97 55.13-43.83 110.26-87.67 165.39-131.5 0.49-0.39 1.15-0.48 1.7-0.28 0.37 0.14 0.53 0.58 0.34 0.93-12.56 23.08-26.56 45.24-42.01 66.48-0.28 0.39-0.22 0.92 0.13 1.24 0.36 0.32 0.9 0.32 1.25 0 12.82-11.61 23.3-26.32 31.95-41.34 11.06-19.24 20.35-38.87 28.57-59.47 13.14-32.89 27.14-65.68 42-98.38 4.23 1.08 7.96 0.75 11.17-0.99-15.65 62.03-40.87 122.41-78.18 174.62-0.22 0.31-0.25 0.6-0.09 0.87 0.15 0.27 0.5 0.33 0.73 0.13 27.86-24.63 51.99-52.54 72.39-83.73 37.96-58.04 65.53-123.01 88-188.41 5.63-16.39 9.74-33.17 12.31-50.32 0.03-0.24 0.13-0.44 0.29-0.6 0.12-0.11 0.31-0.06 0.35 0.09 7.02 25.96 11.06 52.34 12.11 79.13 1.75 44.5-8.55 85.5-30.89 123-37.93 63.69-91.74 119.3-145.68 169.66-2.47 2.3-2.29 2.53 0.54 0.68 26.57-17.4 50.98-38.35 73.23-62.85 20.86-22.97 37.92-48.88 60.86-70 10.77-9.92 21.02-17.33 30.77-22.23 12.24-6.14 25.31-9.09 38.44-12.58 58-15.39 40.57-133.6 31.13-173.66 0.64-0.17 1.02-0.14 1.15 0.08 2.38 4.12 6.19 4.36 9.14 0.6 1.25-1.59 2.37-3.38 3.35-5.39 3.61 20.47 7.63 40.75 12.07 60.86 9.42 42.68 3.1 83.28-15.33 122.62-10.69 22.82-22.98 44.62-36.89 65.39-0.2 0.3-0.19 0.69 0.03 0.97 0.35 0.45 0.76 0.61 1.23 0.47 0.3-0.09 0.59-0.34 0.87-0.75 29.96-43.91 67.85-91.5 62.21-148.67-0.83-8.45-2.1-19.28-3.8-32.5-2.3-17.94-1.95-39.45-3.14-54.01-0.65-7.94-2.62-24.68-5.91-50.21l3.52 2.49c0.31 0.22 0.73 0.04 0.79-0.33 0.28-1.77 1.02-2.95 2.21-3.54z" fill="#313131"/><path d="m428.95 1122.5c-14.19 3.22-26.61-1.79-40.27-7.69-2.63-1.13-4.83-0.54-6.58 1.78-0.2 0.27-0.57 0.34-0.85 0.16-1.32-0.82-2.57-1.25-3.74-1.29-23.03-44.16-50.11-85.93-77.68-129.78-19.96-31.74-35.32-67.6-46.47-103.04-0.39-1.23-0.08-1.43 0.91-0.61 24.82 20.55 47.12 43.56 66.89 69.05 41.44 53.39 74.7 112.45 107.79 171.42z" fill="#504f4f"/><path d="m4.66 928.47c3.72 2.75 8.63-1.24 7.15 6.76-0.05 0.27 0.16 0.52 0.44 0.52h0.28c0.2 0.01 0.33-0.08 0.39-0.27 1.04-3.05 2.68-5.32 4.91-6.8-10.37 31.94-13.12 64.42-8.27 97.44 0.6 4.07 1.78 7.5 3.59 10.94 0.26 0.49 1.01 0.26 0.95-0.29-1.95-19.18-2.18-38.46-0.67-57.83 0.51 0.56 1.02 0.88 1.51 0.96 0.39 0.06 0.64-0.1 0.75-0.47 1.13-3.74 0.36-7.32 1.39-10.76 0.77-2.57 1.63-5.09 2.59-7.56 0.11-0.31 0.33-0.45 0.66-0.43l6.09 0.34c0.23 0.01 0.46-0.05 0.66-0.17 1.03-0.67 2.21-0.95 3.52-0.85-7.48 43.21-8.88 92.02 15.97 130.39 0.27 0.43 0.6 0.7 0.97 0.81 0.31 0.1 0.6-0.21 0.48-0.51-2.14-5.38-4.12-10.69-5.94-15.93-8.04-23.13-6.53-45.44 4.52-66.91 0.81-1.56 2.69-2.52 4.15-1.36 14.34 11.29 26.91 24.63 38.43 39.62 35.35 46.04 70.48 93.36 109.65 134.54 0.24 0.25 0.52 0.31 0.84 0.16 0.09-0.04 0.18-0.09 0.27-0.14 0.38-0.23 0.42-0.52 0.13-0.86-34.18-40.23-62.34-88.66-63.95-142.75-0.02-0.77 0.89-1.18 1.45-0.65 60.94 57.67 129.5 105.28 198.72 152.23 0.24 0.16 0.56 0.06 0.66-0.21 0.13-0.35 0.06-0.65-0.23-0.88-50.95-42.28-99.51-83.69-139.31-136.24-0.13-0.18-0.05-0.43 0.15-0.5l0.53-0.17c0.21-0.07 0.45-0.01 0.6 0.15 9.14 10.05 15.72 16.89 19.74 20.53 35.18 31.84 70.22 63.84 105.11 96 36.62 33.76 76.64 64.61 117.72 92.75 0.19 0.13 0.27 0.08 0.24-0.15l-0.06-0.42c-0.01-0.04-0.03-0.07-0.06-0.1-49.73-40.83-95.61-90.19-128.96-145.65l10.59-0.59c0.46-0.03 0.84 0.32 0.86 0.78 0.13 3.2 2.03 3.41 4.38 4.49 7.93 3.64 16.25 7.55 25.02 8.49 4.75 0.51 8.76-0.98 12.02-4.49 17.99 24.03 34.05 49.23 48.18 75.61 0.21 0.4 0.5 0.55 0.86 0.44 0.35-0.11 0.53-0.5 0.38-0.84l-37.2-82.17c1.17 0.04 2.42 0.47 3.74 1.29 0.28 0.18 0.65 0.11 0.85-0.16 1.75-2.32 3.95-2.91 6.58-1.78 13.66 5.9 26.08 10.91 40.27 7.69l10.13 16.32c0.13 0.21 0.4 0.3 0.63 0.2 0.24-0.09 0.36-0.35 0.3-0.59l-2.06-8.09 4.84-1.45c15.78 30.55 26.27 50.58 31.47 60.07 48.97 89.41 99.47 177.08 138.99 272.61 0.45 1.08 0.09 1.64-1.08 1.68-0.2 0.01-0.64-0.28-1.31-0.87-57.93-50.4-123.15-93.15-194.91-121.1-0.75-0.29-1.36-0.45-1.85-0.5-0.43-0.04-0.6 0.55-0.21 0.74 61.55 29.88 120 69.18 166.85 118.34 28.55 29.96 50.36 65.81 64.52 104.74 0.11 0.3 0.29 0.57 0.51 0.8 1.14 1.14 1.11 2.34-0.08 3.59h-1c-34.49-45.28-74.32-85.28-119.47-119.99-60.51-46.52-125.86-81.19-194.67-114.2-4.03-1.93-6.97-3.83-8.82-5.69-2.33-2.35-7.6-8.77-6.59-12.44 7.07-25.71 1.16-47.51-17.74-65.42-0.14-0.14-0.37-0.15-0.52-0.02-0.16 0.12-0.19 0.34-0.09 0.51 7.7 12.59 11.31 29.57 2.61 42.67-1.06 1.61-3.1 1.34-4.62 0.33-25.79-17.05-52.32-32.87-79.58-47.46-21.69-11.61-36.83-19.96-45.44-25.05-43.45-25.73-81-58.26-112.64-97.59-0.39-0.49-0.82-0.59-1.29-0.31-0.38 0.23-0.5 0.71-0.28 1.09 2.63 4.53 5.57 8.83 8.84 12.92 11.59 14.47 24.1 28.22 38.39 40.23 41.65 34.99 88.68 63.68 137.58 89.51 19.35 10.22 36.11 21.46 51.33 37.26 0.37 0.38 0.39 0.99 0.04 1.39s-0.95 0.48-1.38 0.17c-39.17-27.76-80.36-52.54-121.12-77.91-15.67-9.75-26.91-16.99-33.74-21.74-47.37-32.95-85.4-76.2-113.3-126.64-15.66-28.32-21.5-60.61-22.19-92.69v-12.24c0.57-15.84 2.13-31.58 4.66-47.22z" fill="#313131"/><path d="m442.79 1128.9-4.84 1.45c-19.43-42.81-36.03-86.65-49.82-131.52-2.94-9.59-7.13-26.07-11.64-38.92-0.13-0.39 0.02-0.82 0.37-1.04 0.52-0.32 0.88-0.19 1.09 0.4 20.37 57 40.54 114.18 64.84 169.63z" fill="#504f4f"/><path d="m365.29 1122.4c-3.26 3.51-7.27 5-12.02 4.49-8.77-0.94-17.09-4.85-25.02-8.49-2.35-1.08-4.25-1.29-4.38-4.49-0.02-0.46-0.4-0.81-0.86-0.78l-10.59 0.59-66.18-121.51c-0.22-0.4 0.29-0.8 0.63-0.5 44.83 38.82 84.3 82.38 118.42 130.69z" fill="#504f4f"/><g fill="#626261"><path d="m492.94 43.66c4.87-5.95 12.33-8.87 19.71-10.39 0.27-0.06 0.48 0.24 0.34 0.48-28.6 47.16-43.03 98.83-51.41 152.95-0.79 5.1-2.29 8.33-7.45 9.21-1.05 0.18-1.63-0.26-1.72-1.33-3.7-41.94 8.66-82.66 24.75-120.91 2.85-6.75 6.03-13.34 9.56-19.76 2.97-5.41 5.05-8.82 6.22-10.25z"/><path d="m819.86 33.78c2.96 1.16 9.36 4.32 10.61 7.45 17.94 45.12 32.1 91.89 42.49 140.3 0.16 0.75-0.57 1.37-1.28 1.09l-11.11-4.44c-0.71-0.28-1.25-0.88-1.46-1.61-13.58-47.05-27.09-94.08-40.53-141.09-0.07-0.24-0.11-0.45-0.13-0.62-0.09-0.78 0.68-1.37 1.41-1.08z"/></g><g fill="#fdfdfd"><path d="m406.98 651.93c1.67-0.07 1.73-0.42 0.18-1.04-25.74-10.18-38.09-31.85-40.91-58.72-0.93-8.85 0.78-16.88 5.15-24.09 19.19-31.66 71.47-13.17 96.61-1.6 36.6 16.84 75.27 32.49 116.02 46.95 6.15 2.18 11.66 4.04 17.46-0.39 22.87-17.47 6.38-34.23-12.48-41.72-14.23-5.64-28.86-11.02-42.67-17.01-34.85-15.11-69.62-31.66-104.49-45.46-21.01-8.31-44.72-9.84-61.22 8.16-0.92 1-2.57 0.18-2.33-1.15 8.56-47.9 62.89-37.17 94.78-27.49 41.09 12.47 81.23 30.17 120.43 53.12 12.47 7.3 23.04 14.96 31.72 22.98 0.23 0.22 0.51 0.32 0.82 0.29l0.69-0.06c0.47-0.03 0.71-0.59 0.4-0.96-10.48-12.51-22.24-23.79-35.29-33.82-37.65-28.95-79.19-50.38-124.64-64.29-14.62-4.47-29.55-7.38-44.78-8.71-0.44-0.04-0.75-0.14-0.92-0.29-0.36-0.31-0.4-0.85-0.09-1.21 24.27-29.14 50.69-56.25 79.27-81.33 3.59-3.14 7.05-4.38 11.56-3.84 74.69 9.06 150.84 13.45 225.94 6.64 6.25-0.56 10.06 0.13 16.21 2.52 40.82 15.88 79.66 42.03 104.96 77.94 0.51 0.72 0.11 1.72-0.75 1.89-55.77 11.05-105.51 34.68-149.23 70.87-12.55 10.39-27.77 24.61-33.72 41.9-0.17 0.5 0.46 0.88 0.82 0.5 15.2-15.96 32.11-30.06 50.73-42.29 34.72-22.8 71.38-40.73 109.98-53.8 26.64-9.03 52.14-2.75 60.54 25.83 0.14 0.48-0.32 0.91-0.79 0.75-22.12-7.66-42.78-1.48-62.87 8.24-34.39 16.65-68.48 33.9-102.26 51.75-11.48 6.06-31.21 14.42-32.33 28.41-0.82 10.1 8.36 23.65 19.37 23.41 1.93-0.04 4.41-0.78 7.42-2.23 19.11-9.16 37.84-19.04 56.2-29.63 38.44-22.19 92.46-56.59 138.5-34.14 23.22 11.32 35.12 35.85 28.61 61.04-5.74 22.22-23.4 37.88-45.06 44.15-0.32 0.09-0.53 0.39-0.52 0.71v0.38c0.01 0.33 0.17 0.46 0.49 0.41 6.36-1.05 33.36-4.8 36.95 1.31 0.83 1.42-0.57 3-2.02 3.55-17.05 6.52-34.05 13.07-51 19.65-0.36 0.14-0.53 0.55-0.38 0.9 0.24 0.59 0.8 0.76 1.67 0.53 13.91-3.75 27.09-4.32 39.54-1.7 16.62 3.49 26.36 15.86 30.03 32.13 6.16 27.29-4.62 54.75-23 75.17-45.29 50.28-108.45 54.82-171.57 49.05-13.69-1.25-20-6.1-30.09-14.28-3.59-2.91-6.88-3.65-10.54-0.72-6.23 4.97-10.57 11.08-13.03 18.33-0.38 1.13-2.04 0.94-2.15-0.25-4-43.03-5.81-86.09-5.43-129.17 0.11-12.07 2.14-23.78 6.11-35.11 1.53-4.37 6.51-7.03 10.61-4.65 1.35 0.78 2.89 2.56 4.6 5.35 6.53 10.63 14.07 20.46 22.63 29.49 0.27 0.27 0.55 0.29 0.84 0.04 0.23-0.19 0.35-0.45 0.37-0.76 0.01-0.23-0.09-0.48-0.29-0.77-4.28-5.99-15.02-21.85-10.87-29.32 0.52-0.93 1.63-1.34 2.63-0.97 10.19 3.82 18.96 10.39 29.07 13.78 37.69 12.64 93.12 12.72 120.24-22.27 0.48-0.62 0.5-1.49 0.04-2.12-20.41-28.44-76.6-24.73-107.96-19.47-13.57 2.28-31.16 6.48-35.56 20.7-0.32 1.02-1.55 1.43-2.41 0.79l-12.73-9.44c-0.85-0.63-0.98-1.85-0.28-2.64 7.5-8.53 20.99-12.89 32.25-15.14 23.73-4.75 47.94-5.75 72.01-4.51 0.42 0.02 0.78-0.27 0.85-0.68 0.1-0.59-0.22-0.91-0.96-0.98-28.8-2.71-57.34-1.08-85.62 4.87-5.21 1.1-10.42 2.2-15.63 3.31-1.7 0.36-5.93 0.79-7.16-0.65-0.91-1.06-1.06-2.42-0.21-3.65 7.39-10.76 16.79-19.35 28.19-25.76 0.22-0.12 0.36-0.26 0.43-0.43 0.04-0.1 0.07-0.2 0.08-0.31 0.03-0.25-0.07-0.32-0.3-0.21-15.76 7.32-29.84 17.06-42.24 29.22-13.73 13.46-17.4 28.74-18 47.55-1.75 54.55 2.3 108.2 7.92 162.4 1.66 16.03 1.85 25.92-3.41 39.43-0.48 1.24-0.16 1.5 0.97 0.78 17.92-11.45-0.61-42.92 19.2-56.81 21.52-15.09 48.43 38.18 17.54 50.87-7.23 2.97-19.03 5.4-25.38 10.92-6.96 6.05-14.66 13.36-21.83 17.59-10.15 6-21.13 8.69-32.96 8.06-17.79-0.95-32.39-12.31-45.93-22.58-15.81-12-44.21-9.4-40.8-37.8 1.18-9.85 7.52-25.17 18.07-28.13 8.06-2.26 13.66 3.27 19.25 8.67 0.49 0.47 0.62 0.38 0.4-0.25-12.82-37.78-31.44-1.49-48.1-0.01-47.62 4.25-106.22 4.63-147.3-24.31-39.81-28.07-53.24-79.87-43.02-126.09 4.79-21.69 36.92-15.08 51.77-9.63 0.63 0.23 1.15 0.25 1.57 0.05 0.54-0.25 0.52-1.02-0.03-1.25-9.14-3.81-18.33-7.58-27.58-11.32-6.79-2.75-15.07-6.56-20.08-12.01-0.5-0.54-0.24-1.42 0.47-1.61 10.65-2.87 20.98 0.2 32.04-0.3zm152.71-40.37c5.97 4.22 26.11 17.92 25.99 25.67-0.03 2.07-1.77 3.19-3.68 2.77-35.27-7.78-72-12.86-107.43-7.52-1.97 0.29-1.95 0.43 0.04 0.4 24.4-0.39 48.53 0.97 73.71 5.26 4.64 0.79 43.47 9.25 29.78 20.11-3.18 2.52-6.41 4.89-9.68 7.1-0.41 0.28-0.76 0.23-1.07-0.15-9.36-11.38-22.85-17.42-37.6-20.46-21.73-4.49-43.9-5.4-66.5-2.75-9.95 1.17-38.19 6.9-38.53 19.52-0.01 0.33 0.09 0.65 0.28 0.92 24.3 34.47 77.03 36.78 113.18 27.34 11.8-3.09 22.25-9.29 32.19-16.22 0.26-0.18 0.57-0.29 0.89-0.31 1.9-0.11 3.44 0.41 4.63 1.55 6.17 5.95-6.22 23.97-10.04 29.03-0.22 0.3-0.25 0.7-0.06 1.02l0.15 0.26c0.22 0.37 0.47 0.39 0.75 0.06 7.79-9.29 14.89-19.06 21.31-29.29 3.38-5.38 8.37-10.72 14.54-6.41 8.03 5.61 10.61 25.82 11.66 35.05 6.4 56.23 1.87 113.56 0.57 169.94-0.17 7.15 1.31 12.03 8.4 13.98 0.25 0.07 0.45-0.21 0.32-0.43-4.52-7.53-6.23-15.72-5.12-24.57 1.55-12.39 3.44-37.98 5.68-76.75 2.06-35.7 2.42-69.33-0.07-104.24-0.56-7.87-1.53-13.93-2.91-18.18-8.5-26.18-37.59-42.77-61.01-53.35-2.37-1.07-2.5-0.86-0.37 0.65zm70.17 288.15c0.23 3.49 8.59 6.28 11.31 6.95 12.2 2.97 38.49 3.55 48.79-4.53 1.02-0.8 0.28-2.44-1-2.19-19.16 3.75-38.14 3.08-56.94-2-1.13-0.3-2.23 0.6-2.16 1.77z"/><path d="m619.16 1192.3c-7.6-6.36-15.99-15.3-22.02-22.48-24.56-29.23-48.06-59.27-70.92-89.83-60.73-81.2-106.93-172.34-138.52-268.65-0.11-0.33 0-0.53 0.33-0.61 0.53-0.13 0.98-0.05 1.42 0.31 6.77 5.51 13.53 11.03 20.27 16.58 1.14 0.94 2.01 2.09 2.6 3.45 13.13 30.33 27.51 60.04 43.13 89.14 12.34 22.99 24.26 45.09 47.41 58.45 21.55 12.43 49.7 19.23 74.89 23.31 71.42 11.54 149.7 10.14 218.45-14.02 11.38-3.99 24.09-9.49 33.64-16.37 18.45-13.3 29.83-31.63 39.38-52.12 13.41-28.77 25.45-57.97 36.13-87.59 0.29-0.82 0.87-1.49 1.64-1.9 11.09-5.87 21.37-12.92 30.83-21.17 0.39-0.34 0.99 0.02 0.87 0.52-21.63 90.7-55.7 178.92-111.42 254.16-21.17 28.58-44 56.8-68.5 84.65-14.68 16.7-29.2 31.66-47.34 44.76-0.63 0.46-1.33 0.8-2.09 1.01-0.38 0.11-0.79-0.04-1.02-0.37-0.41-0.6-0.76-1.46-1.04-2.57-2.71-10.89-5.38-21.73-8.03-32.53-0.03-0.14-0.16-0.23-0.31-0.22-0.14 0.01-0.26 0.12-0.27 0.26-2.29 23.31-5.18 46.6-8.67 69.86-2.33 15.45-4.97 26.14-13.05 37.79-0.28 0.4-0.9 0.13-0.8-0.35 13.83-63.01 15.85-126.95 20.71-192.93 0.57-7.77 1.49-13.26 2.74-16.49 4.72-12.17 16.11-18.9 28.43-22.02 17.69-4.49 35.23-9.48 52.64-14.99 0.63-0.2 0.88-0.51 0.75-0.92-0.15-0.47-0.47-0.65-0.96-0.54-72.16 17.14-146.93 21.94-219.46 3.37-0.98-0.25-1.29 0.06-0.93 0.94 0.06 0.15 0.18 0.26 0.33 0.31 15.07 5.68 30.31 10.82 45.74 15.42 25.14 7.49 25.65 32.76 27.53 54.25 2.65 30.27 5.38 60.52 8.21 90.77 2.66 28.5 6.67 57.4 15.83 84.6 0.08 0.23-0.02 0.49-0.24 0.61-0.21 0.11-0.48 0.05-0.63-0.14-10.32-13.56-13.97-26.39-16.48-44.2-2.85-20.14-5.92-40.25-9.21-60.32-0.06-0.34-0.16-0.61-0.29-0.8-0.26-0.36-0.83-0.22-0.9 0.22-1.37 8.55-2.74 17.09-4.12 25.62-0.57 3.48-3.21 6.67-6.68 3.77z"/><path d="m743.44 935.31c-1.52-0.1-3.01-2.38-3.92-3.5-9.29-11.47-18.44-22.83-27.43-34.06-0.62-0.78-0.47-1.92 0.33-2.5 9.22-6.7 21.93-8.29 33.35-10.93 1.86-0.44 4.03-1.44 5.24-3.27 8.07-12.12 7.55-24.59 1.63-37.59-0.53-1.16 0.56-2.4 1.78-2.03 38.83 11.67 80.06 14.66 119.59 4.38 0.35-0.09 0.65-0.09 0.91-0.01 0.33 0.1 0.48 0.49 0.32 0.8-11.26 21.2-24.33 41.18-39.21 59.94-12.85 16.2-31.94 19.34-50.98 23.45-15.58 3.38-28.26 6.2-41.61 5.32z"/><path d="m583.62 937.76c-30.02-0.63-70.28-4.18-92.16-27.73-17.07-18.38-31.31-38.91-42.7-61.58-0.15-0.31-0.07-0.52 0.24-0.63 0.47-0.17 0.99-0.19 1.56-0.04 37.02 9.24 75.13 6.54 111.7-3.25 0.74-0.19 1.38-0.3 1.92-0.31 1.31-0.02 2.25 1.26 1.82 2.49-4.3 12.46-7.73 37.04 11.16 39.93 11.46 1.75 22.69 4.93 31.78 11.17 2.72 1.86 2.18 5.08 0.33 7.56-7.94 10.65-15.86 21.14-23.77 31.49-0.45 0.58-1.15 0.92-1.88 0.9z"/><path d="m702.22 980.02c0.41 0.52 1.06 0.81 1.72 0.75 28.49-2.44 56.37-7.53 83.66-15.27 8.95-2.53 15.31-4.52 19.08-5.97 38.39-14.69 55.08-48.42 73.82-82.5 0.27-0.5 0.7-0.64 1.27-0.42 0.23 0.09 0.29 0.24 0.2 0.46-9.29 22.45-20.78 42.08-34.49 58.89-18.47 22.66-48.22 32.35-75.65 39.28-80.97 20.46-164.57 18.12-244.9-4.89-42.8-12.27-67.44-49.66-84.98-88.89-0.04-0.09-0.19-0.37-0.45-0.83-0.27-0.47-0.28-0.81-0.03-1.01 0.52-0.41 1.28-0.25 1.59 0.34 7.74 14.83 16.32 29 25.74 42.52 18.71 26.87 41.17 37.99 71.83 46.22 26.87 7.22 54.27 11.18 82.2 11.88 0.34 0.01 0.66-0.14 0.87-0.41l26.52-34.6c0.63-0.82 1.58-1.32 2.61-1.36l19-0.84c1.07-0.05 1.94 0.35 2.61 1.2z"/></g><path d="m152.97 504.79c0.06-0.41 0.23-0.64 0.5-0.69 0.46-0.07 0.84 0.36 0.69 0.8-6.21 19.29-10.22 38.98-12.05 59.07-0.02 0.19-0.09 0.37-0.2 0.54-0.13 0.19-0.24 0.36-0.31 0.51-0.15 0.31-0.62 0.18-0.6-0.16 0.92-20.41 4.85-40.17 11.8-59.29 0.05-0.16 0.11-0.42 0.17-0.78z" fill="#313131"/></g></g></svg>